<?xml version="1.0" standalone="no"?>
<!DOCTYPE svg PUBLIC "-//W3C//DTD SVG 20010904//EN"
 "http://www.w3.org/TR/2001/REC-SVG-20010904/DTD/svg10.dtd">
<svg version="1.0" xmlns="http://www.w3.org/2000/svg"
 width="1202.000000pt" height="670.000000pt" viewBox="0 0 1202.000000 670.000000"
 preserveAspectRatio="xMidYMid meet">

<g transform="translate(0.000000,670.000000) scale(0.100000,-0.100000)"
fill="#000000" stroke="none">
<path d="M0 3350 l0 -3350 6010 0 6010 0 0 3350 0 3350 -6010 0 -6010 0 0
-3350z m8003 2735 c1189 -139 2143 -1032 2366 -2216 64 -339 61 -705 -9 -1047
-147 -721 -586 -1359 -1209 -1757 -342 -218 -755 -361 -1187 -411 -180 -21
-501 -14 -689 14 -736 113 -1392 517 -1820 1122 -70 100 -175 271 -175 287 0
10 91 63 107 63 6 0 23 -24 38 -52 84 -156 241 -363 390 -517 935 -966 2449
-1064 3493 -225 515 413 843 992 949 1674 25 162 25 548 0 710 -73 471 -234
854 -516 1225 -96 127 -348 379 -471 471 -392 294 -806 462 -1290 526 -155 20
-510 15 -670 -10 -454 -69 -863 -244 -1220 -520 -117 -91 -326 -297 -423 -417
-82 -102 -195 -266 -243 -355 -15 -28 -32 -50 -37 -50 -5 0 -33 14 -62 30
l-53 31 26 47 c14 26 58 97 99 159 447 683 1189 1136 2001 1222 134 14 468 12
605 -4z m-5443 -1606 c0 -22 -77 -470 -86 -501 -5 -17 -34 -18 -420 -18 -322
0 -414 3 -414 12 0 27 82 484 90 506 l10 22 410 0 410 0 0 -21z m361 -216 c1
-131 5 -494 8 -807 l6 -569 279 789 c153 434 283 797 288 807 7 15 24 17 115
17 95 0 105 -2 101 -17 -5 -17 -759 -2177 -773 -2215 -6 -16 -22 -18 -120 -18
l-112 0 -6 1117 c-3 615 -3 1121 0 1125 2 5 51 8 109 8 l104 0 1 -237z m1668
210 c38 -39 55 -126 48 -250 -6 -108 -263 -1578 -298 -1703 -26 -95 -82 -202
-126 -240 l-34 -30 -302 2 -302 3 -25 50 c-23 46 -25 60 -24 185 0 128 7 175
132 875 73 407 139 771 149 810 42 178 111 291 193 318 8 3 138 6 288 6 l274
1 27 -27z m441 18 c0 -12 -289 -1658 -297 -1688 l-5 -23 281 0 c179 0 281 -4
281 -10 0 -11 -65 -386 -81 -467 l-10 -53 -380 0 c-230 0 -379 4 -379 9 0 20
391 2225 396 2233 7 11 194 10 194 -1z m900 0 c0 -10 -285 -1632 -296 -1683
l-6 -28 221 0 c133 0 221 4 221 9 0 10 285 1632 296 1684 l6 27 100 0 100 0
-6 -27 c-3 -16 -78 -437 -166 -938 -88 -500 -167 -938 -175 -972 -31 -133
-108 -277 -161 -301 -17 -8 -118 -12 -319 -12 l-295 0 -14 23 c-31 49 -41 103
-40 217 1 102 19 217 167 1054 92 516 170 942 173 947 7 12 194 12 194 0z
m1610 -1 c0 -22 -89 -511 -95 -520 -4 -6 -69 -10 -160 -10 l-154 0 -10 -52
c-13 -65 -291 -1643 -291 -1652 0 -3 -45 -6 -100 -6 -55 0 -100 3 -100 6 0 9
291 1656 297 1682 l5 22 -155 0 c-86 0 -158 3 -160 8 -3 5 85 514 92 530 1 1
188 2 416 2 275 0 415 -3 415 -10z m1054 -12 c3 -13 6 -519 6 -1125 l0 -1103
-110 0 -110 0 0 230 0 230 -209 0 -209 0 -77 -219 c-43 -120 -81 -224 -84
-230 -5 -8 -41 -11 -113 -9 l-106 3 384 1100 c211 605 388 1110 394 1123 9 21
15 22 119 22 104 0 109 -1 115 -22z m736 15 c0 -5 -88 -511 -197 -1125 l-197
-1118 -98 0 c-62 0 -98 4 -98 11 0 21 390 2221 396 2230 6 11 194 12 194 2z
m-6920 -869 c0 -19 -78 -470 -86 -496 -5 -17 -34 -18 -420 -18 -329 0 -414 3
-414 13 0 13 76 452 85 495 l5 22 415 0 c378 0 415 -1 415 -16z m-150 -856 c0
-12 -63 -376 -81 -465 l-10 -53 -418 0 -417 0 47 263 c26 144 48 263 48 265 1
1 188 2 416 2 314 0 415 -3 415 -12z"/>
<path d="M3865 3398 c-54 -310 -101 -575 -103 -591 l-4 -27 218 2 218 3 103
580 c56 319 103 583 103 588 0 4 -98 7 -218 7 l-217 0 -100 -562z"/>
<path d="M8260 3554 c-58 -163 -106 -301 -108 -305 -2 -5 46 -9 107 -9 l111 0
0 305 c0 168 -1 305 -3 305 -1 0 -49 -133 -107 -296z"/>
</g>
</svg>
